<svg width="266" height="31" viewBox="0 0 266 31" fill="none" xmlns="http://www.w3.org/2000/svg">
<path d="M21.96 28.4C20.8933 29.0133 19.7467 29.5067 18.52 29.88C17.32 30.2267 16.04 30.4 14.68 30.4C12.7067 30.4 10.8533 30.0267 9.12 29.28C7.38667 28.5333 5.88 27.5067 4.6 26.2C3.29333 24.92 2.26667 23.4133 1.52 21.68C0.773333 19.9467 0.4 18.0933 0.4 16.12C0.4 14.1467 0.773333 12.2933 1.52 10.56C2.26667 8.8 3.29333 7.26667 4.6 5.96C5.88 4.68 7.38667 3.66666 9.12 2.92C10.8533 2.14667 12.7067 1.76 14.68 1.76C16.04 1.76 17.32 1.93333 18.52 2.28C19.7467 2.62667 20.9067 3.12 22 3.76L20.6 5.8C19.72 5.29333 18.7867 4.89333 17.8 4.6C16.8133 4.30667 15.7733 4.16 14.68 4.16C13.0533 4.16 11.52 4.48 10.08 5.12C8.66667 5.73333 7.44 6.58667 6.4 7.68C5.30667 8.77333 4.45333 10.0533 3.84 11.52C3.22667 12.96 2.92 14.4933 2.92 16.12C2.92 17.7467 3.22667 19.2933 3.84 20.76C4.45333 22.2 5.30667 23.44 6.4 24.48C7.44 25.5733 8.66667 26.44 10.08 27.08C11.4933 27.6933 13.0133 28 14.64 28C15.4933 28 16.32 27.92 17.12 27.76C17.9467 27.5733 18.72 27.3067 19.44 26.96V20.48H14.52V18.08H21.96V28.4ZM51.175 26.12C49.8683 27.4267 48.3483 28.4533 46.615 29.2C44.8817 29.9467 43.0283 30.32 41.055 30.32C39.0817 30.32 37.2283 29.9467 35.495 29.2C33.7617 28.4533 32.255 27.4267 30.975 26.12C29.6683 24.84 28.6417 23.3333 27.895 21.6C27.1483 19.8667 26.775 18.0133 26.775 16.04C26.775 14.0667 27.1483 12.2133 27.895 10.48C28.6417 8.74667 29.6683 7.22667 30.975 5.92C32.255 4.61333 33.7617 3.58667 35.495 2.84C37.2283 2.06667 39.0817 1.68 41.055 1.68C43.0283 1.68 44.8817 2.06667 46.615 2.84C48.3483 3.58667 49.8683 4.61333 51.175 5.92C52.4817 7.22667 53.5083 8.74667 54.255 10.48C55.0283 12.2133 55.415 14.0667 55.415 16.04C55.415 18.0133 55.0283 19.8667 54.255 21.6C53.5083 23.3333 52.4817 24.84 51.175 26.12ZM32.775 24.4C33.815 25.4933 35.0417 26.36 36.455 27C37.895 27.6133 39.4283 27.92 41.055 27.92C42.6817 27.92 44.215 27.6133 45.655 27C47.095 26.36 48.3483 25.4933 49.415 24.4C50.4817 23.36 51.3217 22.12 51.935 20.68C52.575 19.2133 52.895 17.6667 52.895 16.04C52.895 14.4133 52.575 12.88 51.935 11.44C51.3217 9.97333 50.495 8.70667 49.455 7.64C48.3617 6.54667 47.095 5.69333 45.655 5.08C44.2417 4.44 42.7217 4.12 41.095 4.12C39.4683 4.12 37.935 4.44 36.495 5.08C35.055 5.69333 33.815 6.54667 32.775 7.64C31.6817 8.70667 30.8283 9.97333 30.215 11.44C29.6017 12.88 29.295 14.4133 29.295 16.04C29.295 17.6933 29.6017 19.24 30.215 20.68C30.8283 22.12 31.6817 23.36 32.775 24.4ZM68.5403 30H60.2203V27.6H63.4203C65.3136 23.0667 67.207 18.5867 69.1003 14.16C71.0203 9.73333 72.927 5.25333 74.8203 0.719998C76.7136 5.25333 78.607 9.73333 80.5003 14.16C82.4203 18.5867 84.327 23.0667 86.2203 27.6H89.4203V30H81.1003V27.6H83.6603C82.9936 26.08 82.3403 24.56 81.7003 23.04C81.087 21.52 80.4603 20 79.8203 18.48H69.8203C69.047 20.32 68.3936 21.84 67.8603 23.04C67.3536 24.24 66.7136 25.76 65.9403 27.6H68.5403V30ZM74.3803 7.56C73.7936 8.97333 73.1936 10.4133 72.5803 11.88C71.9936 13.32 71.4203 14.72 70.8603 16.08H78.7803L75.1803 7.56L74.7803 6.32C74.7003 6.64 74.6203 6.89333 74.5403 7.08C74.487 7.26667 74.4336 7.42666 74.3803 7.56ZM114.213 30H94.2125V27.6H96.6925V4.4H94.2125V2H102.533V4.4H99.2125V27.6H111.773V23.84H114.213V30ZM139.017 24.4C140.057 25.4933 141.284 26.36 142.697 27C144.111 27.6133 145.631 27.92 147.257 27.92C148.884 27.92 150.417 27.6133 151.857 27C153.297 26.36 154.564 25.4933 155.657 24.4C156.724 23.36 157.564 22.12 158.177 20.68C158.817 19.2133 159.137 17.6667 159.137 16.04C159.137 14.4133 158.817 12.88 158.177 11.44C157.564 9.97333 156.724 8.69333 155.657 7.6C154.564 6.50667 153.297 5.65333 151.857 5.04C150.444 4.4 148.924 4.08 147.297 4.08C145.671 4.08 144.137 4.4 142.697 5.04C141.284 5.65333 140.057 6.50667 139.017 7.6C137.924 8.69333 137.071 9.97333 136.457 11.44C135.844 12.88 135.537 14.4133 135.537 16.04C135.537 17.6667 135.844 19.2133 136.457 20.68C137.071 22.12 137.924 23.36 139.017 24.4ZM150.257 30C149.751 30.1067 149.244 30.1867 148.737 30.24C148.257 30.2933 147.777 30.32 147.297 30.32C145.324 30.32 143.471 29.9467 141.737 29.2C140.004 28.4533 138.497 27.44 137.217 26.16C135.911 24.8533 134.884 23.3333 134.137 21.6C133.391 19.8667 133.017 18.0133 133.017 16.04C133.017 14.0667 133.391 12.2133 134.137 10.48C134.884 8.72 135.911 7.2 137.217 5.92C138.497 4.61333 140.004 3.58667 141.737 2.84C143.471 2.06667 145.324 1.68 147.297 1.68C149.271 1.68 151.124 2.06667 152.857 2.84C154.617 3.58667 156.151 4.61333 157.457 5.92C158.737 7.2 159.751 8.72 160.497 10.48C161.271 12.2133 161.657 14.0667 161.657 16.04C161.657 17.4 161.471 18.7067 161.097 19.96C160.724 21.2133 160.204 22.3733 159.537 23.44C159.031 24.2933 158.417 25.0667 157.697 25.76C156.977 26.4533 156.204 27.0667 155.377 27.6H162.537V30H150.257ZM187.122 27.92C186.269 28.72 185.242 29.32 184.042 29.72C182.842 30.12 181.549 30.32 180.162 30.32C178.775 30.32 177.482 30.12 176.282 29.72C175.082 29.32 174.055 28.72 173.202 27.92C172.322 27.1467 171.629 26.1733 171.122 25C170.642 23.8267 170.402 22.48 170.402 20.96V4.4H167.322V2H176.202V4.4H172.922V20.84C172.922 21.9867 173.095 23 173.442 23.88C173.815 24.76 174.322 25.4933 174.962 26.08C175.602 26.6933 176.362 27.16 177.242 27.48C178.149 27.7733 179.122 27.92 180.162 27.92C181.202 27.92 182.162 27.7733 183.042 27.48C183.949 27.16 184.735 26.6933 185.402 26.08C186.042 25.4933 186.535 24.76 186.882 23.88C187.255 23 187.442 21.9867 187.442 20.84V4.4H184.162V2H193.042V4.4H189.962V20.96C189.962 22.48 189.709 23.8267 189.202 25C188.695 26.1733 188.002 27.1467 187.122 27.92ZM217.878 30H197.838V27.6H200.398V4.4H197.838V2H217.318V8.16H214.918V4.4H202.918V14.68H215.758V17.08H202.918V27.6H215.478V23.84H217.878V30ZM237.089 28.24C236.316 28.9067 235.422 29.4267 234.409 29.8C233.396 30.1467 232.316 30.32 231.169 30.32C230.156 30.32 229.182 30.2133 228.249 30C227.316 29.76 226.476 29.4667 225.729 29.12C224.982 28.7733 224.316 28.3867 223.729 27.96C223.169 27.5067 222.729 27.0533 222.409 26.6V22.16H224.809V25.72C225.529 26.3333 226.396 26.8533 227.409 27.28C228.422 27.7067 229.596 27.92 230.929 27.92C231.729 27.92 232.489 27.8 233.209 27.56C233.956 27.32 234.609 26.9733 235.169 26.52C235.729 26.0667 236.169 25.5067 236.489 24.84C236.836 24.1733 237.009 23.4133 237.009 22.56C237.009 21.8667 236.929 21.2267 236.769 20.64C236.609 20.0533 236.356 19.56 236.009 19.16C235.556 18.6267 235.036 18.2 234.449 17.88C233.889 17.56 233.262 17.2533 232.569 16.96C231.609 16.6133 230.596 16.2933 229.529 16C228.489 15.7067 227.529 15.3067 226.649 14.8C225.742 14.32 224.982 13.6667 224.369 12.84C223.782 11.9867 223.476 10.8133 223.449 9.32C223.422 8.44 223.529 7.56 223.769 6.68C224.036 5.8 224.476 5 225.089 4.28C225.676 3.56 226.449 2.97333 227.409 2.52C228.396 2.06666 229.596 1.84 231.009 1.84C231.462 1.84 231.969 1.86666 232.529 1.92C233.089 1.97333 233.662 2.06666 234.249 2.2C234.809 2.36 235.396 2.58667 236.009 2.88C236.622 3.17333 237.222 3.56 237.809 4.04V8.16H235.409V5.24C234.902 4.97333 234.276 4.74667 233.529 4.56C232.782 4.34666 231.942 4.24 231.009 4.24C230.129 4.24 229.369 4.38667 228.729 4.68C228.089 4.94667 227.569 5.32 227.169 5.8C226.769 6.28 226.462 6.81333 226.249 7.4C226.062 7.98667 225.969 8.6 225.969 9.24C225.969 10.2267 226.196 11.0133 226.649 11.6C227.129 12.16 227.756 12.6267 228.529 13C229.516 13.48 230.662 13.9067 231.969 14.28C233.276 14.6267 234.529 15.0933 235.729 15.68C236.849 16.2133 237.756 17.0267 238.449 18.12C239.169 19.1867 239.529 20.6533 239.529 22.52C239.556 23.72 239.342 24.8 238.889 25.76C238.462 26.72 237.862 27.5467 237.089 28.24ZM259.151 30H250.271V27.6H253.631V4.4H246.191V8.16H243.791V2H265.911V8.16H263.511V4.4H256.151V27.6H259.151V30Z" fill="white"/>
</svg>
